<?xml version="1.0" encoding="utf-8"?>
<!-- Generator: Adobe Illustrator 24.0.1, SVG Export Plug-In . SVG Version: 6.00 Build 0)  -->
<svg version="1.1" id="Layer_1" xmlns="http://www.w3.org/2000/svg" xmlns:xlink="http://www.w3.org/1999/xlink" x="0px" y="0px"
	 viewBox="0 0 939 768" style="enable-background:new 0 0 939 768;" xml:space="preserve">
<style type="text/css">
	.st0{fill:url(#SVGID_1_);}
	.st1{fill:url(#SVGID_2_);}
	.st2{fill:url(#SVGID_3_);}
	.st3{fill:url(#SVGID_4_);}
	.st4{fill:url(#SVGID_5_);}
	.st5{fill:#F4F4F4;}
	.st6{fill:#FFFFFF;}
	.st7{fill:url(#SVGID_6_);}
	.st8{fill:url(#SVGID_7_);}
	.st9{fill:url(#SVGID_8_);}
	.st10{opacity:0.5;}
	.st11{fill:#32AD71;}
	.st12{fill:#08594D;}
	.st13{fill:url(#SVGID_9_);}
	.st14{opacity:0.5;fill:#32AD71;}
	.st15{fill:url(#SVGID_10_);}
	.st16{fill:url(#SVGID_11_);}
	.st17{fill:url(#SVGID_12_);}
	.st18{fill:url(#SVGID_13_);}
	.st19{fill:url(#SVGID_14_);}
	.st20{fill:url(#SVGID_15_);}
	.st21{fill:url(#SVGID_16_);}
	.st22{fill:url(#SVGID_17_);}
	.st23{opacity:0.3;}
	.st24{fill:#DCD0C8;}
	.st25{fill:#6D6865;}
	.st26{fill:#C6BBB5;}
	.st27{fill:#948C87;}
	.st28{fill:#A98E75;}
	.st29{fill:#EBB35C;}
	.st30{fill:#454971;}
	.st31{fill:#2E3048;}
	.st32{fill:#DBA585;}
	.st33{fill:#3E4148;}
	.st34{fill:#363957;}
	.st35{fill:#8C8581;}
	.st36{fill:#5D5955;}
	.st37{fill:#B9AFAA;}
	.st38{fill:#B2A8A3;}
	.st39{fill:#F4F6FF;}
	.st40{fill:#8C8480;}
	.st41{fill:#DEDFE6;}
	.st42{fill:#DEDEDE;}
	.st43{fill:#DF655A;}
	.st44{opacity:0.3;fill:#32AD71;}
	.st45{fill:url(#SVGID_18_);}
	.st46{fill:url(#SVGID_19_);}
	.st47{fill:url(#SVGID_20_);}
	.st48{fill:url(#SVGID_21_);}
	.st49{fill:url(#SVGID_22_);}
	.st50{fill:url(#SVGID_23_);}
	.st51{fill:url(#SVGID_24_);}
	.st52{fill:url(#SVGID_25_);}
	.st53{fill:url(#SVGID_26_);}
	.st54{fill:url(#SVGID_27_);}
	.st55{fill:url(#SVGID_28_);}
	.st56{fill:url(#SVGID_29_);}
	.st57{fill:url(#SVGID_30_);}
	.st58{fill:#3A3D5D;}
	.st59{fill:#42466C;}
	.st60{fill:#E6D8D1;}
	.st61{fill:#CD7250;}
	.st62{fill:#997761;}
	.st63{fill:#C8BCB6;}
	.st64{fill:#CFC3BC;}
	.st65{fill:#4C507D;}
	.st66{fill:#6D76BA;}
	.st67{fill:#F3E4DC;}
	.st68{fill:#2A2B41;}
	.st69{fill:#414469;}
</style>
<linearGradient id="SVGID_1_" gradientUnits="userSpaceOnUse" x1="-1098.475" y1="1435.7673" x2="-164.3403" y2="1600.4805" gradientTransform="matrix(-1 0 0 -1 -136.7061 1891.9277)">
	<stop  offset="0" style="stop-color:#08594D;stop-opacity:0.5"/>
	<stop  offset="1" style="stop-color:#32AD71;stop-opacity:0.2"/>
</linearGradient>
<path class="st0" d="M167.8,544.2c85.7,16.2,126.6,79.3,176.8,121.8c59.2,50,131.1,22.3,192.6,13.5c110.5-15.9,148,100.5,269.6,85.1
	c116.4-14.8,161.8-160.5,89.4-244c-72.3-83.5-70-108.7-53.3-167.7c16.6-59,45.9-169.6-70.6-179.5c-100.1-8.6-158-33.6-202-77.1
	C526.3,52.8,364-66.9,288.3,115c-36.2,86.9-58,117.5-139.3,139.7C67.7,277,10.9,338.4,8.4,407.8C6,473.6,53.4,522.6,167.8,544.2z"/>
<g>
	<g>
		
			<linearGradient id="SVGID_2_" gradientUnits="userSpaceOnUse" x1="-11828.6943" y1="-108.4757" x2="-11639.9238" y2="-108.4757" gradientTransform="matrix(-0.9986 -5.380000e-02 -5.380000e-02 0.9986 -11499.1172 -295.2288)">
			<stop  offset="5.181350e-03" style="stop-color:#4A612F"/>
			<stop  offset="1" style="stop-color:#769A42"/>
		</linearGradient>
		<path class="st1" d="M301.7,237.8c12.2,26.7,19.1,52,10.1,63.2c-0.5,0.7-1.1,1.3-1.7,1.8c-6.9,6.1-20.6,6.3-43.6-2.9
			c-61.3-24.2-64.2-66-76.6-106.9c-12.2-40.3-54.9-33.5-56-33.3C233.3,125.1,280.9,192.5,301.7,237.8z"/>
		<g>
			
				<linearGradient id="SVGID_3_" gradientUnits="userSpaceOnUse" x1="-3779.4238" y1="3132.509" x2="-3779.4238" y2="2999.7715" gradientTransform="matrix(0.7495 -0.662 0.662 0.7495 1083.5215 -4532.6201)">
				<stop  offset="5.181350e-03" style="stop-color:#4A612F"/>
				<stop  offset="1" style="stop-color:#769A42"/>
			</linearGradient>
			<path class="st2" d="M311.8,301c-0.5,0.7-1.1,1.3-1.7,1.8c-11.5-6.9-33.6-21.7-44-38.2c-4.9-7.8-9-16.6-13.4-25.8
				c-8.3-17.5-16.8-35.7-31.7-49.6l1.7-1.8c15.3,14.2,23.9,32.6,32.3,50.3c4.3,9.2,8.4,17.9,13.3,25.6
				C278.3,279.5,300.6,294.2,311.8,301z"/>
		</g>
	</g>
	<g>
		
			<linearGradient id="SVGID_4_" gradientUnits="userSpaceOnUse" x1="-11810.6279" y1="-165.4548" x2="-11721.2715" y2="-165.4548" gradientTransform="matrix(-0.9986 -5.380000e-02 -5.380000e-02 0.9986 -11499.1172 -295.2288)">
			<stop  offset="5.181350e-03" style="stop-color:#4A612F"/>
			<stop  offset="1" style="stop-color:#769A42"/>
		</linearGradient>
		<path class="st3" d="M291,248.7c-0.7,1.8-1.2,2.8-1.2,2.9c-0.2-1-0.4-2-0.6-2.9c-8.2-41.9-19.1-46.3-51.9-83
			C203.8,128.2,223,93.2,223,93.2C335.4,125.7,298.7,229.9,291,248.7z"/>
		<g>
			
				<linearGradient id="SVGID_5_" gradientUnits="userSpaceOnUse" x1="-2176.2764" y1="2639.7161" x2="-2176.2764" y2="2509.3792" gradientTransform="matrix(0.8707 -0.4917 0.4917 0.8707 896.8263 -3123.6531)">
				<stop  offset="5.181350e-03" style="stop-color:#4A612F"/>
				<stop  offset="1" style="stop-color:#769A42"/>
			</linearGradient>
			<path class="st4" d="M291,248.7c-0.7,1.8-1.2,2.8-1.2,2.9c-0.2-1-0.4-2-0.6-2.9c3.6-36.2-18.2-78.8-25.1-86.4
				c-7.1-7.9-11.5-18.8-13.1-22.9c-0.3-0.7-0.5-1.3-0.6-1.5l1.6-0.9c0.1,0.2,0.3,0.7,0.7,1.7c1.6,4,5.9,14.7,12.8,22.3
				C274.2,170.7,294.4,213.5,291,248.7z"/>
		</g>
	</g>
	<path class="st5" d="M767.5,233.6H322.1c-27.3,0-49.5-22.2-49.5-49.5V81c0-27.3,22.2-49.5,49.5-49.5h445.3
		c27.3,0,49.5,22.2,49.5,49.5v103.1C817,211.5,794.8,233.6,767.5,233.6z"/>
	<rect x="301.1" y="469.9" class="st6" width="204.1" height="6.8"/>
	<linearGradient id="SVGID_6_" gradientUnits="userSpaceOnUse" x1="527.1978" y1="441.4314" x2="235.8191" y2="441.4314">
		<stop  offset="0" style="stop-color:#EEBE63"/>
		<stop  offset="1" style="stop-color:#DC3B57"/>
	</linearGradient>
	<rect x="301.1" y="438" class="st7" width="151.6" height="6.8"/>
	<linearGradient id="SVGID_7_" gradientUnits="userSpaceOnUse" x1="527.199" y1="457.3608" x2="235.8194" y2="457.3608">
		<stop  offset="0" style="stop-color:#EEBE63"/>
		<stop  offset="1" style="stop-color:#DC3B57"/>
	</linearGradient>
	<rect x="301.1" y="453.9" class="st8" width="163.8" height="6.8"/>
	<linearGradient id="SVGID_8_" gradientUnits="userSpaceOnUse" x1="527.1942" y1="473.2915" x2="235.8207" y2="473.2915">
		<stop  offset="0" style="stop-color:#EEBE63"/>
		<stop  offset="1" style="stop-color:#DC3B57"/>
	</linearGradient>
	<rect x="301.1" y="469.9" class="st9" width="106.3" height="6.8"/>
	<g>
		<path class="st5" d="M481.6,557.8H213c-20.3,0-36.7-16.4-36.7-36.7V281.3c0-20.3,16.4-36.7,36.7-36.7h268.6
			c20.3,0,36.7,16.4,36.7,36.7v239.8C518.3,541.4,501.9,557.8,481.6,557.8z"/>
		<g>
			<g class="st10">
				<path class="st11" d="M303,339.5c6.9-19.4,0.7-40.3-14.1-52.9c-3.5-3-7.5-5.5-12-7.5c-1-0.4-2-0.8-3-1.2
					c-10.2-3.7-20.9-3.6-30.5-0.6c-13.9,4.4-25.7,15-31,29.7c-1.7,4.9-2.7,9.9-2.8,14.8c-0.6,20.3,11.8,39.5,31.9,46.7
					C266.5,377.5,294.1,364.5,303,339.5z M245.6,357.2c-15.1-5.4-24.4-19.8-23.9-35c0.1-3.7,0.8-7.4,2.1-11.1
					c4-11.1,12.8-19,23.2-22.3c7.2-2.3,15.2-2.3,22.9,0.5c0.8,0.3,1.5,0.6,2.2,0.9c3.3,1.4,6.3,3.3,9,5.6
					c11.1,9.4,15.8,25.1,10.6,39.6C285,354.2,264.3,363.9,245.6,357.2z"/>
			</g>
			<g>
				<path class="st12" d="M247,288.8l-3.6-11.5c-13.9,4.4-25.7,15-31,29.7c-1.7,4.9-2.7,9.9-2.8,14.8l12,0.4
					c0.1-3.7,0.8-7.4,2.1-11.1C227.7,300,236.5,292.1,247,288.8z"/>
			</g>
			<g>
				<path class="st11" d="M272.1,290.2l4.8-11c-1-0.4-2-0.8-3-1.2c-10.2-3.7-20.9-3.6-30.5-0.6l3.6,11.5c7.2-2.3,15.2-2.3,22.9,0.5
					C270.6,289.6,271.4,289.9,272.1,290.2z"/>
			</g>
			<g class="st10">
				<path class="st11" d="M288.9,286.6c-3.5-3-7.5-5.5-12-7.5l-4.8,11c3.3,1.4,6.3,3.3,9,5.6L288.9,286.6z"/>
			</g>
		</g>
		<g class="st10">
			<rect x="439.5" y="437.1" class="st11" width="16.7" height="57.2"/>
		</g>
		<g class="st10">
			<rect x="414.7" y="453.2" class="st11" width="16.7" height="41.2"/>
		</g>
		<g class="st10">
			<rect x="463.6" y="410.6" class="st11" width="16.7" height="83.7"/>
		</g>
		<g class="st10">
			<polygon class="st11" points="477.6,368.8 477.3,367 433.2,374.2 418.9,404.7 371.4,407.9 356,430.6 319.7,429.7 319.6,431.5 
				357,432.5 372.4,409.7 420.1,406.4 434.5,375.9 			"/>
		</g>
		<linearGradient id="SVGID_9_" gradientUnits="userSpaceOnUse" x1="418.2931" y1="287.1613" x2="476.6382" y2="287.1613">
			<stop  offset="0" style="stop-color:#08594D"/>
			<stop  offset="1" style="stop-color:#32AD71;stop-opacity:0.2"/>
		</linearGradient>
		<path class="st13" d="M423.7,292.6h47.5c3,0,5.4-2.4,5.4-5.4l0,0c0-3-2.4-5.4-5.4-5.4h-47.5c-3,0-5.4,2.4-5.4,5.4l0,0
			C418.3,290.2,420.7,292.6,423.7,292.6z"/>
		<path class="st14" d="M423.7,311.5h47.5c3,0,5.4-2.4,5.4-5.4l0,0c0-3-2.4-5.4-5.4-5.4h-47.5c-3,0-5.4,2.4-5.4,5.4l0,0
			C418.3,309.1,420.7,311.5,423.7,311.5z"/>
		<path class="st14" d="M423.7,330.5h47.5c3,0,5.4-2.4,5.4-5.4l0,0c0-3-2.4-5.4-5.4-5.4h-47.5c-3,0-5.4,2.4-5.4,5.4l0,0
			C418.3,328,420.7,330.5,423.7,330.5z"/>
		<g class="st10">
			<polygon class="st11" points="337.8,302 310.6,302 310.6,300.9 337.3,300.9 351.6,286.6 369.1,286.6 369.1,287.7 352.1,287.7 			
				"/>
		</g>
		<g class="st10">
			<polygon class="st11" points="363.5,349.4 328.5,349.4 317.2,338.1 318,337.4 329,348.4 363.5,348.4 			"/>
		</g>
		<linearGradient id="SVGID_10_" gradientUnits="userSpaceOnUse" x1="354.2117" y1="295.7625" x2="390.4439" y2="295.7625">
			<stop  offset="0" style="stop-color:#08594D"/>
			<stop  offset="1" style="stop-color:#32AD71;stop-opacity:0.2"/>
		</linearGradient>
		<rect x="354.2" y="293.5" class="st15" width="36.2" height="4.4"/>
		<linearGradient id="SVGID_11_" gradientUnits="userSpaceOnUse" x1="343.1593" y1="341.0939" x2="372.3278" y2="341.0939">
			<stop  offset="0" style="stop-color:#08594D"/>
			<stop  offset="1" style="stop-color:#32AD71;stop-opacity:0.2"/>
		</linearGradient>
		<rect x="343.2" y="338.9" class="st16" width="29.2" height="4.4"/>
	</g>
	<g>
		<linearGradient id="SVGID_12_" gradientUnits="userSpaceOnUse" x1="90.4184" y1="500.0515" x2="196.2766" y2="500.0515">
			<stop  offset="0" style="stop-color:#08594D"/>
			<stop  offset="1" style="stop-color:#32AD71"/>
		</linearGradient>
		<path class="st17" d="M99.7,360.2c9.1-4.4,18.2,24.7,18.2,24.7c15.5,20.5,37.2-6.8,35.1,23.9c-3.7,53.6,61.7,16.9,31.5,72.8
			c-30.2,56,26.7,31.7,7.9,76.8c-18.8,45.1,5.6,99-22.7,76.9c0,0-24.9-54.5-50.5-71.4c-25.6-16.9,15.4-36.9,7.3-59.8
			c-11.6-33.3-39.7-32-19.5-67.7C127.3,400.6,68.6,375,99.7,360.2z"/>
		<g>
			<path class="st6" d="M178.7,614.7c-12.2-8.6-26.6-68.6-27.4-104.3c-0.4-18.3-5.8-25.9-10.6-32.6c-4.6-6.4-8.5-12-6.2-24.7
				c4.4-24.4-7.1-34.9-7.3-35l1.3-1.5c0.5,0.4,12.5,11.3,7.9,36.9c-2.1,11.9,1.4,16.9,5.9,23.2c4.7,6.6,10.5,14.9,11,33.8
				c0.9,38.3,15.6,94.9,26.5,102.7L178.7,614.7z"/>
		</g>
		<g>
			<linearGradient id="SVGID_13_" gradientUnits="userSpaceOnUse" x1="168.0728" y1="559.1215" x2="263.8025" y2="559.1215">
				<stop  offset="0" style="stop-color:#81D3E4"/>
				<stop  offset="1" style="stop-color:#6076FA"/>
			</linearGradient>
			<path class="st18" d="M183.2,619.2c-1.6,0-3.3-0.2-5.2-0.6c-4.7-1-7.8-3.4-9.2-7.4c-3.3-9.4,4.3-24.8,10.5-32.1
				c0.1-0.1,10.5-12.8,9.4-30.4c-0.2-2.9-0.5-5.7-0.8-8.1c-0.8-7-1.3-12,1.6-15.3c2.6-3,7.7-4.2,17-4.3c16.3-0.1,22.7-6.8,27.9-12.2
				c2.2-2.3,4.3-4.5,6.8-5.8l0,0c8.1-4.4,16.7-5.1,20.4-1.5c1.8,1.7,3.3,5,0.3,11.1c-2.7,5.6-6.2,9.2-9,12
				c-3.8,3.8-6.2,6.4-4.9,11.4c0.3,1.2,0.7,2.4,1,3.6c2.5,8.6,5.4,18.3-9.3,24.9c-3.1,1.4-6,2.5-8.5,3.5c-10.3,4-16.4,6.5-23.4,21.2
				c-1.4,2.9-2.5,5.6-3.7,8.2C198.8,609.7,194.6,619.2,183.2,619.2z M242.3,504.7c-2.2,1.2-4.1,3.2-6.3,5.5
				c-5.4,5.7-12.2,12.8-29.3,12.9c-8.5,0-13.3,1.2-15.5,3.6c-2.4,2.7-1.9,7.3-1.1,13.8c0.3,2.4,0.6,5.2,0.8,8.2
				c1.2,18.4-9.4,31.3-9.8,31.8c-6.1,7.3-13.1,21.9-10.2,30.2c1.1,3.2,3.7,5.3,7.7,6.1c13.8,2.8,17.7-5.9,24-20.2
				c1.2-2.6,2.4-5.4,3.7-8.2c7.3-15.5,14.2-18.2,24.5-22.2c2.5-1,5.3-2.1,8.4-3.5c13.1-5.9,10.7-14,8.2-22.5c-0.4-1.2-0.7-2.4-1-3.6
				c-1.6-6.2,1.5-9.3,5.5-13.3c2.8-2.9,6-6.2,8.6-11.5c1.3-2.8,2.4-6.6,0.1-8.8C257.4,499.9,249.6,500.7,242.3,504.7L242.3,504.7z"
				/>
		</g>
		<g>
			<linearGradient id="SVGID_14_" gradientUnits="userSpaceOnUse" x1="176.2552" y1="573.0419" x2="248.108" y2="573.0419">
				<stop  offset="0" style="stop-color:#81D3E4"/>
				<stop  offset="1" style="stop-color:#6076FA"/>
			</linearGradient>
			<path class="st19" d="M178.3,630.9l-2-0.1c0.1-1.9,2.7-46.6,20.6-59.7c19.7-14.4,25.9-29.8,28.9-40.2c3.5-12.2,21.2-15.5,22-15.6
				l0.4,2c-0.2,0-17.3,3.2-20.4,14.2c-3,10.7-9.4,26.5-29.6,41.3C180.9,585.2,178.3,630.4,178.3,630.9z"/>
		</g>
		<linearGradient id="SVGID_15_" gradientUnits="userSpaceOnUse" x1="150.3099" y1="515.2209" x2="233.9872" y2="515.2209">
			<stop  offset="0" style="stop-color:#08594D"/>
			<stop  offset="1" style="stop-color:#32AD71"/>
		</linearGradient>
		<path class="st20" d="M219.4,405.3c-12.8-4.4-10.1,20.2-15.5,38.5c-5.4,18.2-60,7.9-37.1,53.5c22.9,45.6-29,15.3-13.5,55.1
			c15.5,39.8,1.3,82.4,18.2,71.5c16.9-10.8,9.5-60.9,27-66.9c17.5-6,20.4-12.9,3-29.1c-17.4-16.2,45.5-32.3,30-64.9
			C216,430.3,234.1,410.4,219.4,405.3z"/>
		<g>
			<path class="st6" d="M179.3,622c-1.6-6.8-15.3-66.8-2.5-74c11.3-6.4,11-31.2,9.2-54.7c-1.6-20.8,25.1-30.5,26.3-30.9l0.7,1.9
				c-0.3,0.1-26.3,9.6-24.9,28.8c1.8,24.1,2,49.7-10.3,56.6c-9.7,5.5-0.8,53.7,3.5,71.8L179.3,622z"/>
		</g>
		<linearGradient id="SVGID_16_" gradientUnits="userSpaceOnUse" x1="131.1083" y1="635.2471" x2="208.3228" y2="635.2471">
			<stop  offset="0" style="stop-color:#E59148"/>
			<stop  offset="1" style="stop-color:#F1CC52"/>
		</linearGradient>
		<polygon class="st21" points="208.3,600.7 190.1,669.8 149.3,669.8 131.1,600.7 		"/>
		<linearGradient id="SVGID_17_" gradientUnits="userSpaceOnUse" x1="131.1083" y1="635.2471" x2="208.3228" y2="635.2471">
			<stop  offset="0" style="stop-color:#B37239"/>
			<stop  offset="1" style="stop-color:#F1CC52"/>
		</linearGradient>
		<path class="st22" d="M208.3,600.7c0,0-40.1,7.5-40.1,69.2h-18.8l-18.2-69.2H208.3z"/>
	</g>
	<g class="st23">
		<polygon class="st11" points="318.6,4 318.6,9.9 261.4,9.9 261.4,67.1 255.5,67.1 255.5,4 		"/>
	</g>
	<g>
		<g>
			<rect x="264.9" y="510.8" class="st24" width="57.4" height="3.4"/>
		</g>
		<g>
			
				<rect x="272.6" y="523.1" transform="matrix(-1 -1.224647e-16 1.224647e-16 -1 550.2537 1201.2396)" class="st25" width="5" height="155.1"/>
		</g>
		<g>
			<rect x="313.4" y="509.8" class="st26" width="39.9" height="4.9"/>
		</g>
		<g>
			<rect x="325.8" y="468.3" class="st27" width="15.1" height="45.9"/>
		</g>
		<g>
			<rect x="244.3" y="514.3" class="st28" width="221.2" height="8.8"/>
		</g>
		<g>
			<path class="st29" d="M201.8,460.9c0,0-2.4,33.9,4.2,38c4.2,2.5,20.7,11.1,20.2,12.7c-0.5,1.6-9.3,14.3-9.3,14.3
				s-31.8-20.9-32.8-27.6c-1-6.4,1.6-49.7,5.9-51.7c3.3-1.5,5-0.3,9.1,2.8C205,453.8,201.8,460.9,201.8,460.9z"/>
		</g>
		<g>
			<g>
				<g>
					<path class="st30" d="M241,657c0,0-1,6.9-1.1,7.9c-0.1,1-11-0.6-11-0.6l-0.9-8.2C228,656.1,239.6,656,241,657z"/>
				</g>
			</g>
		</g>
		<g>
			<g>
				<g>
					<path class="st31" d="M240,664c0,0,3.4,4.1,6.8,5.9c3.3,1.8,8.6,2.5,10.5,4.4c1.4,1.3,5.2,7.1-8.7,7c-13.8-0.1-20.5,0.8-22-1.4
						c-1.5-2.2,2.1-16.4,2.1-16.4S232.1,664.7,240,664z"/>
				</g>
			</g>
		</g>
		<g>
			<g>
				<g>
					<path class="st30" d="M310.7,657.1c0,0-1,6.9-1.1,7.9c-0.1,1-11-0.6-11-0.6l-0.9-8.2C297.7,656.2,309.3,656.1,310.7,657.1z"/>
				</g>
			</g>
		</g>
		<g>
			<g>
				<g>
					<path class="st31" d="M309.7,664.1c0,0,3.4,4.1,6.8,5.9c3.3,1.8,15.6,3.3,17.6,5.2c1.4,1.3,3.8,6.8-15.7,6.3
						c-13.8-0.4-20.5,0.8-22-1.4c-1.5-2.2,2.1-16.4,2.1-16.4S301.6,664.9,309.7,664.1z"/>
				</g>
			</g>
		</g>
		<g>
			<g>
				<g>
					<path class="st31" d="M205.9,538.4c0,0,39.6,6.7,48.5,8.1c8.9,1.4,57.4,13.5,63.4,17.1c4.8,2.9-2.5,73.1-4.2,99.9h-19.1
						l-1.4-80.4c-22.9,0.6-39.2-5.4-55.9-2.8c-16.7,2.5-30.6,6.1-41.2-8.1C196,572.3,195.6,541.5,205.9,538.4z"/>
				</g>
			</g>
		</g>
		<g>
			<g>
				<g>
					<path class="st31" d="M244.9,663.6l-18.6-1.2l-1.8-79.3c-9.9,0.2-13.2-0.4-21.2-1.3l-15-34.9c13.2,2.6,55.3,13.3,60.9,16.7
						C254,566.5,246.6,636.8,244.9,663.6z"/>
				</g>
			</g>
		</g>
		<g>
			<g>
				<g>
					<path class="st32" d="M224.1,390.1c0,0,14.5-4,20,7.3c5.5,11.3,3,32.6-4.3,34.6c-7.3,2-17.8-0.3-20.9-7.3c-3-7-5.5-17-4.7-23.4
						C215,394.8,220.2,391.7,224.1,390.1z"/>
				</g>
			</g>
		</g>
		<g>
			<g>
				<g>
					<path class="st32" d="M236.1,429.7c0,0-0.2,8.6,0.8,10.4c0.9,1.8-20.2,1.4-20.2,1.4s3.3-10.3,1.4-19
						C216.2,413.8,236.1,429.7,236.1,429.7z"/>
				</g>
			</g>
		</g>
		<g>
			<g>
				<g>
					<path class="st33" d="M217,419.2c0,0,1.1,2.3,6.6,1.9c5.5-0.4,12.7-7,15-7.6c2.3-0.6,2.5-1.9,2.5-1.9l1.2,2.2l2.4,0.4
						c0,0-1.6-6.6,1.9-8.9c3.5-2.3-1.6-21.1-19.4-16.6c0,0-13.6,2.5-13.8,10.1C213.1,406.4,214.3,415.2,217,419.2z"/>
				</g>
			</g>
		</g>
		<g>
			<g>
				<g>
					<path class="st24" d="M238,439.9c0,0-0.1-3.5-1.6-3.8c-1.6-0.3-16.6-2.4-18.6-1.6l-0.8,4.6C216.9,439,220.7,441.3,238,439.9z"
						/>
				</g>
			</g>
		</g>
		<g>
			<g>
				<g>
					<path class="st32" d="M242.3,410.1c-0.4-2.9-3.7-6.1-5.5-1.7c-1.9,4.5,1.3,10.9,3.3,10.6C242.2,418.6,242.9,414,242.3,410.1z"
						/>
				</g>
			</g>
		</g>
		<g>
			<g>
				<g>
					<path class="st34" d="M300.9,481.1C300.9,481.1,300.9,481.1,300.9,481.1C301,481.1,301,481.1,300.9,481.1z"/>
				</g>
			</g>
		</g>
		<g>
			<g>
				<g>
					<path class="st33" d="M219.9,392.2c0,0-17.7-0.8-3.1,26.8L219.9,392.2z"/>
				</g>
			</g>
		</g>
		<g>
			<g>
				<polygon class="st35" points="180.5,673 181.8,676.7 237.4,659.5 234.7,652 				"/>
			</g>
		</g>
		<g>
			<g>
				<rect x="232.9" y="596.4" class="st35" width="6.3" height="60.4"/>
			</g>
		</g>
		<g>
			<g>
				<rect x="217.5" y="593.2" class="st36" width="37.3" height="3.6"/>
			</g>
		</g>
		<g>
			<g>
				<polygon class="st35" points="292.2,673 290.9,676.7 235.3,659.5 237.8,651.5 				"/>
			</g>
		</g>
		<g>
			<g>
				<polygon class="st35" points="253.1,676.3 253.1,680.6 235.3,659.5 237.8,651.5 				"/>
			</g>
		</g>
		<g>
			<g>
				<path class="st37" d="M297.4,678.2c0,2.9-2.3,5.2-5.2,5.2c-2.9,0-5.2-2.3-5.2-5.2c0-2.9,2.3-5.2,5.2-5.2
					C295.1,673,297.4,675.3,297.4,678.2z"/>
			</g>
		</g>
		<g>
			<g>
				<path class="st37" d="M253.5,678.2c0,2.9-2.3,5.2-5.2,5.2c-2.9,0-5.2-2.3-5.2-5.2c0-2.9,2.3-5.2,5.2-5.2
					C251.2,673,253.5,675.3,253.5,678.2z"/>
			</g>
		</g>
		<g>
			<g>
				<path class="st37" d="M185.7,678.2c0,2.9-2.3,5.2-5.2,5.2c-2.9,0-5.2-2.3-5.2-5.2c0-2.9,2.3-5.2,5.2-5.2
					C183.3,673,185.7,675.3,185.7,678.2z"/>
			</g>
		</g>
		<g>
			<path class="st24" d="M273.7,593.2H199c-3.7,0-6.7-3-6.7-6.7l0,0c0-3.7,3-6.7,6.7-6.7h74.8c3.7,0,6.7,3,6.7,6.7l0,0
				C280.5,590.2,277.5,593.2,273.7,593.2z"/>
		</g>
		<g>
			<rect x="432.2" y="523.1" class="st25" width="5" height="155.1"/>
		</g>
		<g>
			<path class="st38" d="M386.9,490.4H279.8c-6.5,0-11.7-5.2-11.7-11.7V410c0-6.5,5.2-11.7,11.7-11.7h107.2
				c6.5,0,11.7,5.2,11.7,11.7v68.7C398.6,485.2,393.4,490.4,386.9,490.4z"/>
		</g>
		<g>
			<rect x="273.2" y="403.3" class="st39" width="120.3" height="72.7"/>
		</g>
		<g>
			<path class="st40" d="M388.2,482.8c0,2.1-2.2,3.7-4.8,3.7c-2.7,0-4.9-1.7-4.9-3.7c0-2.1,2.2-3.7,4.9-3.7
				C386,479.1,388.2,480.8,388.2,482.8z"/>
		</g>
		<g>
			<path class="st27" d="M360.4,514.4v-1.6c0,0-2.3-10.2-18.6-10.2c-16.3,0-16,11.8-16,11.8H360.4z"/>
		</g>
		<g>
			<g>
				<path class="st32" d="M325.6,504.1c0,0,3.5-0.3,4.8-1.1c1.3-0.8,9.1-6,10.9-5.2c1.8,0.8,14,4.6,13.5,6.3
					c-0.4,1.8-1.5,1.6-2.4,1.3c-0.9-0.3-9.7-2.2-10.4-1.9c0,0,8.7,3.2,8.7,5.5c0,2.3-1.8,2.9-2.6,3.7c-0.8,0.9-1.8,3-4,3.2
					c-2.2,0.2-13.1-3.6-15.4-3.8c-2.2-0.2-6.4,0.1-6.7-0.2C321.7,511.6,325.6,504.1,325.6,504.1z"/>
			</g>
		</g>
		<g>
			<g>
				<g>
					<path class="st29" d="M261.1,444.7c-11.3-2-23.2-4.8-23.2-4.8l-21-0.9c0,0-19.3,4.3-26.9,7.7c-0.7,0.3-0.7,17.2-2.7,21.6
						l6.3,13.3c0,0,3.6,26.3,4.4,38c0.3,5.4-1,52-1,52s1.9,0.9,16.2,2.5c14.4,1.6,50.2-0.6,50.4-2.3c0.2-1.7-6.9-63.1-7.3-66.3
						c-0.5-4.9,1.4-27.4,1.4-27.4c2.7,3.6,9.6,20,16.8,27.8c4.2,4.6,25.2,7.4,29.1,7.5c8.6,0.3,24.2,2,24.7,1.2
						c0.4-0.5,1.4-13.9,0.4-14.2c-0.9-0.3-29.9-2-37.4-5.9c-2.7-1.4-10.9-19.2-10.9-19.2S267.4,447.5,261.1,444.7z"/>
				</g>
			</g>
		</g>
		<g>
			<path class="st24" d="M209.9,570.3h-15.8c-12.4,0-22.5-10.1-22.5-22.5v-39.2c0-12.4,10.1-22.5,22.5-22.5h15.8
				c12.4,0,22.5,10.1,22.5,22.5v39.2C232.5,560.2,222.4,570.3,209.9,570.3z"/>
		</g>
		<g>
			<path class="st24" d="M221.7,589.9c-9,0-16.3-3-21.6-9c-12.2-13.4-10-37-9.9-38c0.2-1.9,1.8-3.2,3.7-3c1.9,0.2,3.2,1.8,3,3.7
				c0,0.3-2,21.7,8.2,32.8c4.1,4.5,9.5,6.7,16.6,6.7c1.9,0,3.4,1.5,3.4,3.4C225.1,588.4,223.6,589.9,221.7,589.9z"/>
		</g>
		<g>
			<g>
				<g>
					<path class="st41" d="M315.3,412.9h-31.9c-0.9,0-1.7-0.8-1.7-1.7v-0.5c0-0.9,0.8-1.7,1.7-1.7h31.9c0.9,0,1.7,0.8,1.7,1.7v0.5
						C316.9,412.2,316.2,412.9,315.3,412.9z"/>
				</g>
			</g>
		</g>
		<g>
			<g>
				<g>
					<path class="st41" d="M315.3,421.1h-31.9c-0.9,0-1.7-0.8-1.7-1.7V419c0-0.9,0.8-1.7,1.7-1.7h31.9c0.9,0,1.7,0.8,1.7,1.7v0.5
						C316.9,420.4,316.2,421.1,315.3,421.1z"/>
				</g>
			</g>
		</g>
		<g>
			<g>
				<g>
					<path class="st41" d="M311.3,470.2h-24c-3.1,0-5.6-2.5-5.6-5.6v-32.1c0-3.1,2.5-5.6,5.6-5.6h24c3.1,0,5.6,2.5,5.6,5.6v32.1
						C316.9,467.7,314.4,470.2,311.3,470.2z"/>
				</g>
			</g>
		</g>
		<g>
			<g>
				<g>
					<path class="st41" d="M377.9,470.2H333c-4.9,0-8.9-4-8.9-8.9V418c0-4.9,4-8.9,8.9-8.9h44.9c4.9,0,8.9,4,8.9,8.9v43.2
						C386.8,466.2,382.8,470.2,377.9,470.2z"/>
				</g>
			</g>
		</g>
	</g>
	<g>
		<g class="st23">
			<g>
				<path class="st11" d="M435.1,113.6c-10.6-29.6-38.9-47.8-68.7-46.9c-7.2,0.2-14.5,1.6-21.7,4.1c-21.7,7.8-37.3,25.1-43.7,45.5
					c-4.4,14.2-4.5,29.8,0.9,44.9c0.5,1.5,1.1,3,1.7,4.4c2.8,6.5,6.5,12.4,11,17.6c18.5,21.8,49.2,30.9,77.7,20.8
					C429.1,190.8,448.3,150.4,435.1,113.6z M386.4,187.3c-21.4,7.6-44.4,0.7-58.2-15.6c-3.3-3.9-6.1-8.3-8.2-13.2
					c-0.5-1.1-0.9-2.2-1.3-3.3c-4-11.3-4-23-0.7-33.6c4.8-15.3,16.5-28.3,32.7-34.1c5.4-1.9,10.9-2.9,16.3-3.1
					c22.3-0.7,43.6,13,51.5,35.1C428.3,147.1,413.9,177.5,386.4,187.3z"/>
			</g>
		</g>
		<g>
			<g>
				<path class="st12" d="M317.9,121.6l-16.9-5.3c6.4-20.4,22-37.7,43.7-45.5c7.2-2.6,14.5-3.9,21.7-4.1l0.5,17.7
					c-5.4,0.2-10.9,1.2-16.3,3.1C334.4,93.3,322.7,106.3,317.9,121.6z"/>
			</g>
		</g>
		<g>
			<g>
				<path class="st11" d="M319.9,158.6l-16.2,7.1c-0.6-1.4-1.2-2.9-1.7-4.4c-5.4-15-5.4-30.7-0.9-44.9l16.9,5.3
					c-3.3,10.6-3.3,22.4,0.7,33.6C319,156.4,319.5,157.5,319.9,158.6z"/>
			</g>
		</g>
		<g class="st10">
			<g>
				<path class="st11" d="M314.7,183.2c-4.4-5.2-8.1-11.1-11-17.6l16.2-7.1c2.1,4.9,4.9,9.3,8.2,13.2L314.7,183.2z"/>
			</g>
		</g>
	</g>
	<g>
		<g>
			<g>
				<rect x="463.1" y="117.9" class="st42" width="12.5" height="89.2"/>
			</g>
			<g>
				<rect x="494.1" y="136" class="st42" width="12.5" height="71.1"/>
			</g>
			<g>
				<rect x="525.2" y="122.7" class="st42" width="12.5" height="84.4"/>
			</g>
			<g>
				<rect x="556.3" y="149" class="st42" width="12.5" height="58.1"/>
			</g>
			<g>
				<rect x="587.4" y="125.5" class="st42" width="12.5" height="81.6"/>
			</g>
			<g>
				<rect x="618.5" y="113.1" class="st42" width="12.5" height="94"/>
			</g>
			<g>
				<rect x="649.6" y="108" class="st42" width="12.5" height="99.1"/>
			</g>
			<g>
				<rect x="463.1" y="151.2" class="st43" width="12.5" height="55.9"/>
			</g>
			<g>
				<rect x="494.1" y="162.5" class="st43" width="12.5" height="44.6"/>
			</g>
			<g>
				<rect x="525.2" y="154.2" class="st43" width="12.5" height="52.9"/>
			</g>
			<g>
				<rect x="556.3" y="170.7" class="st43" width="12.5" height="36.4"/>
			</g>
			<g>
				<rect x="587.4" y="155.9" class="st43" width="12.5" height="51.2"/>
			</g>
			<g>
				<rect x="618.5" y="148.2" class="st43" width="12.5" height="58.9"/>
			</g>
			<g>
				<rect x="649.6" y="144.9" class="st43" width="12.5" height="62.2"/>
			</g>
		</g>
		<g>
			<rect x="683.9" y="117.9" class="st42" width="12.5" height="89.2"/>
		</g>
		<g>
			<rect x="714.9" y="136" class="st42" width="12.5" height="71.1"/>
		</g>
		<g>
			<rect x="746" y="122.7" class="st42" width="12.5" height="84.4"/>
		</g>
		<g>
			<rect x="777.1" y="149" class="st42" width="12.5" height="58.1"/>
		</g>
		<g>
			<rect x="683.9" y="151.2" class="st43" width="12.5" height="55.9"/>
		</g>
		<g>
			<rect x="714.9" y="162.5" class="st43" width="12.5" height="44.6"/>
		</g>
		<g>
			<rect x="746" y="154.2" class="st43" width="12.5" height="52.9"/>
		</g>
		<g>
			<rect x="777.1" y="170.7" class="st43" width="12.5" height="36.4"/>
		</g>
	</g>
	<path class="st44" d="M462.5,73.9h320.8c3.5,0,6.4-2.9,6.4-6.4v0c0-3.5-2.9-6.4-6.4-6.4H462.5c-3.5,0-6.4,2.8-6.4,6.4v0
		C456.1,71,459,73.9,462.5,73.9z"/>
	<path class="st44" d="M462.5,96.1h320.8c3.5,0,6.4-2.9,6.4-6.4v0c0-3.5-2.9-6.4-6.4-6.4H462.5c-3.5,0-6.4,2.8-6.4,6.4v0
		C456.1,93.3,459,96.1,462.5,96.1z"/>
	<g>
		<path class="st5" d="M654,502.5H548.4c-12.8,0-23.1-10.4-23.1-23.1V267.9c0-12.8,10.4-23.1,23.1-23.1H654
			c12.8,0,23.1,10.4,23.1,23.1v211.5C677.1,492.2,666.7,502.5,654,502.5z"/>
	</g>
	<g class="st10">
		<g>
			<linearGradient id="SVGID_18_" gradientUnits="userSpaceOnUse" x1="535.8045" y1="440.4829" x2="536.4686" y2="440.4829">
				<stop  offset="0" style="stop-color:#08594D"/>
				<stop  offset="1" style="stop-color:#32AD71"/>
			</linearGradient>
			<rect x="535.8" y="397.9" class="st45" width="0.7" height="85.2"/>
		</g>
		<g>
			<linearGradient id="SVGID_19_" gradientUnits="userSpaceOnUse" x1="568.1058" y1="440.4829" x2="568.7699" y2="440.4829">
				<stop  offset="0" style="stop-color:#08594D"/>
				<stop  offset="1" style="stop-color:#32AD71"/>
			</linearGradient>
			<rect x="568.1" y="397.9" class="st46" width="0.7" height="85.2"/>
		</g>
		<g>
			<linearGradient id="SVGID_20_" gradientUnits="userSpaceOnUse" x1="600.4072" y1="440.4829" x2="601.0713" y2="440.4829">
				<stop  offset="0" style="stop-color:#08594D"/>
				<stop  offset="1" style="stop-color:#32AD71"/>
			</linearGradient>
			<rect x="600.4" y="397.9" class="st47" width="0.7" height="85.2"/>
		</g>
		<g>
			<linearGradient id="SVGID_21_" gradientUnits="userSpaceOnUse" x1="632.7085" y1="440.4829" x2="633.3726" y2="440.4829">
				<stop  offset="0" style="stop-color:#08594D"/>
				<stop  offset="1" style="stop-color:#32AD71"/>
			</linearGradient>
			<rect x="632.7" y="397.9" class="st48" width="0.7" height="85.2"/>
		</g>
		<g>
			<linearGradient id="SVGID_22_" gradientUnits="userSpaceOnUse" x1="665.0099" y1="440.4829" x2="665.674" y2="440.4829">
				<stop  offset="0" style="stop-color:#08594D"/>
				<stop  offset="1" style="stop-color:#32AD71"/>
			</linearGradient>
			<rect x="665" y="397.9" class="st49" width="0.7" height="85.2"/>
		</g>
	</g>
	<linearGradient id="SVGID_23_" gradientUnits="userSpaceOnUse" x1="536.1355" y1="444.1855" x2="665.3403" y2="444.1855">
		<stop  offset="0" style="stop-color:#08594D"/>
		<stop  offset="1" style="stop-color:#32AD71"/>
	</linearGradient>
	<path class="st50" d="M536.1,449.2c0,0,13.2,11.1,25.9-2c12.7-13.1,27.4-17.5,40.4-6.5c13,11.1,18-4.1,31-16.6
		c13-12.4,12.8-19.5,32-19.5v79.1H536.1V449.2z"/>
	<rect x="568.4" y="391.4" class="st44" width="8" height="3.1"/>
	<rect x="535.8" y="391.4" class="st44" width="10.9" height="3.1"/>
	<rect x="600.7" y="391.4" class="st44" width="9.9" height="3.1"/>
	<rect x="632.7" y="391.4" class="st44" width="9.9" height="3.1"/>
	<rect x="655.4" y="391.4" class="st44" width="9.9" height="3.1"/>
	<linearGradient id="SVGID_24_" gradientUnits="userSpaceOnUse" x1="616.5009" y1="338.1501" x2="659.6931" y2="338.1501">
		<stop  offset="0" style="stop-color:#08594D"/>
		<stop  offset="1" style="stop-color:#32AD71"/>
	</linearGradient>
	<rect x="616.5" y="335.4" class="st51" width="43.2" height="5.5"/>
	<linearGradient id="SVGID_25_" gradientUnits="userSpaceOnUse" x1="616.5009" y1="361.0511" x2="656.1497" y2="361.0511">
		<stop  offset="0" style="stop-color:#08594D"/>
		<stop  offset="1" style="stop-color:#32AD71"/>
	</linearGradient>
	<rect x="616.5" y="358.3" class="st52" width="39.6" height="5.5"/>
	<linearGradient id="SVGID_26_" gradientUnits="userSpaceOnUse" x1="616.5009" y1="349.6023" x2="650.8067" y2="349.6023">
		<stop  offset="0" style="stop-color:#08594D"/>
		<stop  offset="1" style="stop-color:#32AD71"/>
	</linearGradient>
	<rect x="616.5" y="346.9" class="st53" width="34.3" height="5.5"/>
	<path class="st44" d="M577.8,327.6c0,4.2-3.4,7.6-7.6,7.6c-4.2,0-7.6-3.4-7.6-7.6c0-4.2,3.4-7.5,7.6-7.5
		C574.4,320.1,577.8,323.5,577.8,327.6z"/>
	<path class="st44" d="M583.8,352.2v14.4c-4.2,1.9-8.8,3-13.7,3c-4.9,0-9.5-1.1-13.7-3v-14.4c0-7.6,6.1-13.7,13.7-13.7
		C577.7,338.6,583.8,344.7,583.8,352.2z"/>
	<g>
		<linearGradient id="SVGID_27_" gradientUnits="userSpaceOnUse" x1="536.1355" y1="336.4328" x2="604.1792" y2="336.4328">
			<stop  offset="0" style="stop-color:#D3D8DE"/>
			<stop  offset="1" style="stop-color:#FFFFFF"/>
		</linearGradient>
		<path class="st54" d="M570.2,370.5c-4.9,0-9.6-1-14.1-3c-12.1-5.5-20-17.7-20-31c0-18.8,15.3-34,34-34c18.8,0,34,15.3,34,34
			c0,13.3-7.8,25.5-20,31C579.8,369.4,575.1,370.5,570.2,370.5z M570.2,304.2c-17.8,0-32.2,14.5-32.2,32.2
			c0,12.6,7.4,24.1,18.9,29.4c4.2,1.9,8.7,2.9,13.3,2.9c4.6,0,9.1-1,13.3-2.9c11.5-5.2,18.9-16.7,18.9-29.4
			C602.4,318.7,587.9,304.2,570.2,304.2z"/>
	</g>
	<g>
		<linearGradient id="SVGID_28_" gradientUnits="userSpaceOnUse" x1="617.1016" y1="301.5039" x2="658.2086" y2="301.5039">
			<stop  offset="0" style="stop-color:#08594D"/>
			<stop  offset="1" style="stop-color:#32AD71;stop-opacity:0.2"/>
		</linearGradient>
		<path class="st55" d="M637.7,322.1c-11.3,0-20.6-9.2-20.6-20.6c0-11.3,9.2-20.6,20.6-20.6c11.3,0,20.6,9.2,20.6,20.6
			C658.2,312.8,649,322.1,637.7,322.1z M637.7,285.1c-9.1,0-16.4,7.4-16.4,16.4c0,9.1,7.4,16.4,16.4,16.4c9.1,0,16.4-7.4,16.4-16.4
			C654.1,292.4,646.7,285.1,637.7,285.1z"/>
	</g>
	<rect x="568.6" y="260.5" class="st44" width="31" height="4.9"/>
	<rect x="573.2" y="273.3" class="st44" width="26.4" height="4.9"/>
	<rect x="557.1" y="286" class="st44" width="42.5" height="4.9"/>
	<g>
		<path class="st5" d="M783.8,317.6h-91.3c-3.2,0-5.8-2.6-5.8-5.8v-61.7c0-3.2,2.6-5.8,5.8-5.8h91.3c3.2,0,5.8,2.6,5.8,5.8v61.7
			C789.6,315,787,317.6,783.8,317.6z"/>
	</g>
	<linearGradient id="SVGID_29_" gradientUnits="userSpaceOnUse" x1="695.03" y1="266.2317" x2="730.9453" y2="266.2317">
		<stop  offset="0" style="stop-color:#08594D"/>
		<stop  offset="1" style="stop-color:#32AD71;stop-opacity:0.2"/>
	</linearGradient>
	<path class="st56" d="M728.3,268.8h-30.7c-1.4,0-2.6-1.2-2.6-2.6l0,0c0-1.4,1.2-2.6,2.6-2.6h30.7c1.4,0,2.6,1.2,2.6,2.6v0
		C730.9,267.7,729.8,268.8,728.3,268.8z"/>
	<linearGradient id="SVGID_30_" gradientUnits="userSpaceOnUse" x1="695.03" y1="254.3952" x2="723.1738" y2="254.3952">
		<stop  offset="0" style="stop-color:#08594D"/>
		<stop  offset="1" style="stop-color:#32AD71;stop-opacity:0.2"/>
	</linearGradient>
	<path class="st57" d="M720.6,257h-22.9c-1.4,0-2.6-1.2-2.6-2.6l0,0c0-1.4,1.2-2.6,2.6-2.6h22.9c1.4,0,2.6,1.2,2.6,2.6v0
		C723.2,255.8,722,257,720.6,257z"/>
	<polygon class="st14" points="695,307.5 715.8,286.7 722.1,292.9 744.9,270.1 755,280.2 781.6,253.7 781.6,307.5 	"/>
	<polygon class="st11" points="781.3,307.5 781.3,266.2 754,293.6 744.2,283.8 727.8,300.1 715.5,295.2 695,307.5 	"/>
	<g>
		<g>
			<path class="st58" d="M719.2,666.8c0,0-7.7,10.8-6.6,12.5c1.1,1.7,9.1,2,14,0c4.9-2,5-14.6,7.3-20c0.9-2.3-1.1-9-3.9-9.5
				c-2.8-0.5-5.8,0.9-5.8,0.9S727.1,658.4,719.2,666.8z"/>
		</g>
		<g>
			<g>
				<path class="st32" d="M724.1,650.6c0,0-1.6,4.6-2.2,9c-0.5,3.6-5.5,11.4-5.2,12.3c0.2,1,6.5,1.9,9.1-0.7
					c2.6-2.5,4.2-9.8,4.8-14.2c0.5-4.1,1.2-6.1,1.2-6.1S726.6,647.9,724.1,650.6z"/>
			</g>
		</g>
		<g>
			<path class="st58" d="M786,666.9c0,0-7.4,10.6-6.3,12.3c1.1,1.7,9.1,2,14,0c4.9-2,5-14.6,7.2-20c0.9-2.3-1.1-9-3.9-9.5
				c-2.8-0.5-6.1,1-6.1,1S793.8,658.5,786,666.9z"/>
		</g>
		<g>
			<g>
				<path class="st32" d="M791,650.8c0,0-0.6,5-1.5,8.5c-0.9,3.5-6,11.6-5.7,12.6c0.2,1,6.5,1.9,9.1-0.7c2.6-2.5,4.6-9.8,4.8-14.2
					c0.2-4.4-0.6-7.3-0.6-7.3S793.4,648.1,791,650.8z"/>
			</g>
		</g>
		<g>
			<g>
				<path class="st32" d="M754,475.4c0,0-6.6,32-8.1,40c-1.5,8-5.7,47-6.2,53.6c-0.5,6.6-6.9,31.6-6.6,34c0.3,2.4-9.5,49.9-9.5,49.9
					s3.4,2.8,6.9,0.3c1.8-1.3,21.5-44.5,21.5-56.3c0-16.4,11.6-37.7,13.1-41.4c13.9-34,11.2-44.4,13-46.6c1.8-2.2,2,1.4,3,6.3
					c1.1,4.9,3.3,47.2,4.7,52.5c1.4,5.4,0.3,23.5,1.1,32.7c0.8,9.2,4.1,50.5,4.1,50.5s2.6,4.2,6.2,0.1c0.8-0.9,6.2-46.1,6.4-57
					c0.2-10.9,0.3-25.9,0.6-30.6c2.8-45.1,9.7-51.5-1.2-83.5C782.7,420.1,754,475.4,754,475.4z"/>
			</g>
		</g>
		<g>
			<path class="st59" d="M798.2,466.5c0,0,18.8,27.4,10.7,85.6c0,0-44.5,6.3-68.3-7.3c0,0,9.9-60.1,13.4-69.4
				C757.6,466,798.2,466.5,798.2,466.5z"/>
		</g>
		<g>
			<polygon class="st58" points="734.1,658.3 734.1,669.6 732.7,669.6 732.7,660.9 			"/>
		</g>
		<g>
			<polygon class="st58" points="801.1,658.3 801.1,669.6 799.7,669.6 799.7,660.9 			"/>
		</g>
		<path class="st32" d="M776,345c0,0-12.6,12.6-8.3,28.9c4.3,16.3,11.1,16.4,18.7,9.4c7.6-7,12-14.4,13-22.6
			C800.5,352.6,787.5,333.7,776,345z"/>
		<path class="st32" d="M773.5,399.3c0,0,1.9-4.3,3.2-9.1c0.2-0.8,0.4-1.7,0.6-2.6c0.6-3,0.9-6,0.2-8c-2-5.9,12.6-1.8,12.6-1.8
			s-2.8,15.7,0,20.9C792.9,404.1,773.5,399.3,773.5,399.3z"/>
		<path class="st60" d="M810.4,406.8c-2.3-4.6-4-6-8.4-7.4c-2.5-0.8-13.6-3.7-13.6-3.7l-13.3-0.5c0,0-9.2,1.5-16.2,4
			c-7.1,2.5-16.4,15.9-16.4,15.9s12.8,30.1,15.3,38.8c2.5,8.6,0.8,22,0.8,22c15.4,8.4,40-0.8,40-0.8c-1.9-6.8-1.9-14.6-1-20.2
			c0.1-0.7,0.2-1.3,0.4-1.9c0.1-0.5,0.3-1.3,0.5-2.2c0,0,0-0.1,0-0.1c9.8,1,19,1.4,19.2-0.6C818.9,441.3,813.6,413.1,810.4,406.8z
			 M803.7,441.1c-0.4-0.1-1.2-0.1-2.1-0.1c1.1-3,2.3-5.7,2.3-5.7C804.5,437.2,807.2,441.7,803.7,441.1z"/>
		<path class="st61" d="M780.1,354.1c0,0,6,10.9,9.7,14.8c3.7,3.9,3.3,7,3.3,7s14.5-17.9,4.2-28.8c-10.4-10.8-23.8-6.5-27.7,3
			c-3.9,9.5-2.5,21-2.5,21S767.3,360.1,780.1,354.1z"/>
		<path class="st61" d="M784,342.7c0,0-1.5-8,11.1-11.2c12.5-3.2,18.2,11.3,16.6,20.1c-1.5,8.8-12.3,31.2-6.5,34.1
			c5.8,2.9,8.1-3.4,8.1-3.4s-1.8,11-9.9,8.4c-8.1-2.5-7-20.4-5.8-27.5C798.9,356.1,784,342.7,784,342.7z"/>
		<path class="st62" d="M788.1,381.7c0,0.1-3.2,7.4-11.4,8.5c0.2-0.8,0.4-1.7,0.6-2.6C777.3,387.7,781.8,388.6,788.1,381.7z"/>
		<path class="st63" d="M803.7,435.4c0,0-0.6,1.3-2.2,6.2c-1.7-14-0.8-21.2-0.8-21.2C800.8,427.9,803.7,435.4,803.7,435.4z"/>
		<path class="st60" d="M786,341c0,0,8.9,1.7,13.3,9c0,0-0.9-6.6-5.3-8.5C789.6,339.6,786,341,786,341z"/>
		<path class="st63" d="M798.6,450.8c-0.2,0.9-0.4,1.6-0.5,2.2c-0.1,0.6-0.3,1.2-0.4,1.9c-5.5-3-9.5-5.3-9.5-5.3
			C789.7,449.8,798.6,450.8,798.6,450.8z"/>
		<path class="st32" d="M789.2,395.9l-15.7,12.8l1.6-13.4C775.1,395.2,784.3,393.2,789.2,395.9z"/>
		<polygon class="st64" points="778.1,406.5 773.5,408.6 788.9,393.4 		"/>
		<path class="st65" d="M799.5,449.7c-2.2,8.9,5.8,29,5.8,29l-15.8,4.9c-2.3,0.7-4.7-0.7-5.2-3c-2.1-9.8-7.1-34-7.7-47.5
			c-0.8-17.2,11.7-37.4,11.7-37.4c22.2,3.8,16.1,37.4,16.1,37.4s-0.8,2.1-1.9,5.4c0,0,0,0,0,0c-0.3,0.8-0.6,1.7-0.9,2.7
			C801.1,443.7,800.3,446.6,799.5,449.7z"/>
		<path class="st65" d="M773.6,395.9l0.3-0.7c0,0-11.4,1.7-17.2,4.6c-5.8,2.9-16.9,17.8-16.9,17.8l14.5,19.1
			c0,14.7-2.4,40.8-2.4,40.8l6.6,3.8c1.8,1,4-0.2,4-2.3c0.2-9.9,0.6-33.5,0.9-45c0.3-14.7,10.8-38.5,10.8-38.5
			C774,395.8,773.8,395.9,773.6,395.9z"/>
		<path class="st32" d="M752.9,464.8c0,0,10.9,0.4,12.6,0c1.7-0.4,13-5.3,13.7-10.2c0.7-4.9-26.3,4.4-26.3,4.4V464.8z"/>
		<polygon class="st66" points="786.8,449.7 742.5,444.5 762.5,460.8 		"/>
		<polygon class="st34" points="762.5,460.8 786.8,452.5 786.8,449.7 761.7,457.7 		"/>
		<g>
			<path class="st32" d="M773.9,441.5c0,0-3.7,0-5.7-0.4c-1.6-0.3-5.5,0.1-6.5,1c-1,0.9-4.2,7.1-4.8,7.5c-0.6,0.4,0.3,1.3,1.4,0.8
				c0,0,1,2.7,3.4,1.7c2.4-1,4-3.2,5.3-3.6c1.3-0.4,8.6-2.4,8.6-2.4S775.8,440.9,773.9,441.5z"/>
		</g>
		<polygon class="st67" points="776,392.7 767.5,406.1 763.5,408.6 773,395.3 		"/>
		<polygon class="st64" points="767.5,406.1 773.5,408.6 775.1,395.2 776,392.7 		"/>
		<path class="st65" d="M754.3,458.6c0,0-0.5,5.6,0,6.8c0,0-27.3-2.7-29.9-6.6c-2.5-3.8-2.5-8.5-2.5-8.5L754.3,458.6z"/>
		<polygon class="st68" points="762.5,460.8 749.6,412.7 700.5,407.5 713.9,451.8 		"/>
		<polygon class="st67" points="788.9,393.4 778.1,406.5 784,411.8 790.4,396.1 		"/>
		<path class="st69" d="M803.1,437.4c0,0-0.4,1.1-0.4,1.1c-0.3,0.8-0.6,1.7-0.9,2.7c-2.1,0.7-20.3-0.7-20.3-0.7
			S796.8,437,803.1,437.4z"/>
		<path class="st65" d="M802,440.9c-2.9-0.2-7.7-0.5-11.6-0.5c-6.1,0-16.5,0.7-16.5,0.7l1.2,6.5c0,0,18.5,3,28.6,3.7l0,0
			c0,0,13.3,1.5,14.3-0.5c1-2-0.3-14.7-2.5-26.2c-2.2-11.5-4.4-18.1-7-21.7c-2.6-3.6-16.6-6.3-16.6-6.3l11.9,38.8c0,0,1.7,3.5,1.6,5
			c0,0.5-0.3,0.7-0.8,0.8c-0.3,0-1-0.1-1.9-0.2L802,440.9z"/>
	</g>
</g>
</svg>
