<svg xmlns="http://www.w3.org/2000/svg" xmlns:xlink="http://www.w3.org/1999/xlink" width="147.995" height="65.333" viewBox="0 0 147.995 65.333">
  <defs>
    <linearGradient id="linear-gradient" x1="0.197" y1="0.527" x2="1.005" y2="0.248" gradientUnits="objectBoundingBox">
      <stop offset="0" stop-color="#fff"/>
      <stop offset="1" stop-color="#1e754a"/>
    </linearGradient>
    <linearGradient id="linear-gradient-2" x1="0.491" y1="0.605" x2="0.618" y2="-0.265" xlink:href="#linear-gradient"/>
    <linearGradient id="linear-gradient-3" x1="0.221" y1="0.977" x2="0.851" y2="0.251" xlink:href="#linear-gradient"/>
    <linearGradient id="linear-gradient-4" x1="0.516" y1="0.633" x2="-0.245" y2="0.031" xlink:href="#linear-gradient"/>
    <linearGradient id="linear-gradient-5" x1="0.291" y1="0.977" x2="0.572" y2="0.275" xlink:href="#linear-gradient"/>
    <linearGradient id="linear-gradient-6" x1="0.274" y1="0.9" x2="0.798" y2="0.277" xlink:href="#linear-gradient"/>
    <linearGradient id="linear-gradient-7" x1="0.367" y1="0.85" x2="1.037" y2="0.102" xlink:href="#linear-gradient"/>
    <linearGradient id="linear-gradient-8" x1="0.46" y1="0.92" x2="0.584" y2="0.042" xlink:href="#linear-gradient"/>
    <linearGradient id="linear-gradient-9" x1="0.132" y1="0.723" x2="0.982" y2="-0.129" xlink:href="#linear-gradient"/>
    <linearGradient id="linear-gradient-10" x1="0.497" y1="0.9" x2="0.524" y2="-0.249" xlink:href="#linear-gradient"/>
    <linearGradient id="linear-gradient-11" x1="0.147" y1="0.648" x2="1.131" y2="-0.025" xlink:href="#linear-gradient"/>
    <linearGradient id="linear-gradient-12" x1="0.78" y1="0.864" x2="0.196" y2="-0.348" xlink:href="#linear-gradient"/>
    <linearGradient id="linear-gradient-13" x1="0.389" y1="0.506" x2="0.64" y2="0.349" gradientUnits="objectBoundingBox">
      <stop offset="0" stop-color="#fff"/>
      <stop offset="0.664" stop-color="#1e754a"/>
    </linearGradient>
    <linearGradient id="linear-gradient-14" x1="-0.703" y1="-1.052" x2="0.513" y2="0.587" gradientUnits="objectBoundingBox">
      <stop offset="0" stop-color="#fff"/>
      <stop offset="1" stop-color="#00665e"/>
    </linearGradient>
  </defs>
  <g id="Group_3978" data-name="Group 3978" transform="translate(-110.101 -139.333)">
    <g id="Group_3976" data-name="Group 3976" transform="translate(190.515 139.333)">
      <g id="Group_3969" data-name="Group 3969" transform="translate(-80.414)">
        <g id="Group_3966" data-name="Group 3966" transform="translate(0.064 3.253)">
          <path id="Path_6866" data-name="Path 6866" d="M172,63.868a7.666,7.666,0,0,1-2.377-.385l-5.846-1.8a13.389,13.389,0,0,0-8.094,0l-5.846,1.8a8.053,8.053,0,0,1-6.424-.771,7.952,7.952,0,0,1-3.854-5.2l-1.413-5.974a14.046,14.046,0,0,0-4.047-7l-4.433-4.176a8.082,8.082,0,0,1,0-11.82L134.1,24.36a13.849,13.849,0,0,0,4.047-7l1.413-5.974a7.952,7.952,0,0,1,3.854-5.2,8.053,8.053,0,0,1,6.424-.771l5.846,1.8a13.389,13.389,0,0,0,8.094,0l5.846-1.8a8.053,8.053,0,0,1,6.424.771,7.952,7.952,0,0,1,3.855,5.2l1.413,5.974a14.045,14.045,0,0,0,4.047,7l4.433,4.176a8.081,8.081,0,0,1,0,11.82l-4.433,4.176a13.85,13.85,0,0,0-4.047,7l-1.413,5.974a7.952,7.952,0,0,1-3.855,5.2A7.06,7.06,0,0,1,172,63.868ZM147.464,6.886a6.085,6.085,0,0,0-3.148.835,6.44,6.44,0,0,0-3.019,4.047l-1.413,5.974a16.071,16.071,0,0,1-4.561,7.966l-4.433,4.176a6.367,6.367,0,0,0,0,9.251l4.433,4.176a15.351,15.351,0,0,1,4.561,7.966l1.413,5.974a6.367,6.367,0,0,0,8.03,4.625l5.846-1.8a15.976,15.976,0,0,1,9.187,0l5.846,1.8a6.244,6.244,0,0,0,5.011-.578,6.44,6.44,0,0,0,3.019-4.047l1.413-5.974a16.071,16.071,0,0,1,4.561-7.966l4.433-4.176a6.367,6.367,0,0,0,0-9.251l-4.433-4.176a15.35,15.35,0,0,1-4.561-7.966l-1.413-5.974a6.367,6.367,0,0,0-8.03-4.625l-5.846,1.8a15.976,15.976,0,0,1-9.187,0l-5.846-1.8A9.961,9.961,0,0,0,147.464,6.886Z" transform="translate(-127.1 -5.064)" fill="#00ce7c"/>
        </g>
        <path id="Path_6867" data-name="Path 6867" d="M147.227,14.338l.578-2.57a6.226,6.226,0,0,1,3.019-4.047,6.085,6.085,0,0,1,3.148-.835,6.21,6.21,0,0,1,1.863.257l2.441.771a10.7,10.7,0,0,1,1.478-1.478l-3.4-1.028a8.054,8.054,0,0,0-6.424.771,7.952,7.952,0,0,0-3.854,5.2l-.771,3.4C145.878,14.659,146.521,14.466,147.227,14.338Z" transform="translate(-133.544 -1.811)" opacity="0.66" fill="url(#linear-gradient)"/>
        <path id="Path_6868" data-name="Path 6868" d="M189.542,8.078l2.762-.835a6.244,6.244,0,0,1,5.011.578,6.44,6.44,0,0,1,3.019,4.047l.514,2.248c.642.064,1.285.128,1.927.257l-.707-2.891a7.952,7.952,0,0,0-3.855-5.2,8.053,8.053,0,0,0-6.424-.771l-2.891.835A13.824,13.824,0,0,1,189.542,8.078Z" transform="translate(-149.135 -1.847)" opacity="0.66" fill="url(#linear-gradient-2)"/>
        <path id="Path_6869" data-name="Path 6869" d="M132.782,52.6l-1.927-1.8a6.367,6.367,0,0,1,0-9.251l1.992-1.863c-.193-.642-.385-1.285-.578-1.991l-2.7,2.505a8.082,8.082,0,0,0,0,11.82l2.57,2.377A7.615,7.615,0,0,1,132.782,52.6Z" transform="translate(-127 -13.481)" opacity="0.66" fill="url(#linear-gradient-3)"/>
        <path id="Path_6870" data-name="Path 6870" d="M223.119,40.313,220.614,38a18.028,18.028,0,0,1-.514,1.991l1.8,1.67a6.367,6.367,0,0,1,0,9.251L220.742,52a2.927,2.927,0,0,1,1.092,1.413l1.285-1.156a8.23,8.23,0,0,0,0-11.949Z" transform="translate(-160.291 -13.588)" opacity="0.66" fill="url(#linear-gradient-4)"/>
        <path id="Path_6871" data-name="Path 6871" d="M158.948,89.252a3.862,3.862,0,0,1-.578-.835l-2.634.771a6.244,6.244,0,0,1-5.011-.578,6.44,6.44,0,0,1-3.019-4.047l-.642-2.762H145.2l.707,3.148a7.952,7.952,0,0,0,3.854,5.2,8.053,8.053,0,0,0,6.424.771l3.148-.964C159.269,89.766,159.076,89.509,158.948,89.252Z" transform="translate(-133.508 -29.251)" opacity="0.66" fill="url(#linear-gradient-5)"/>
        <path id="Path_6872" data-name="Path 6872" d="M200.47,82.993l-.45,1.991a6.367,6.367,0,0,1-8.03,4.625l-2.762-.835a10.719,10.719,0,0,0-1.028,1.542l3.276,1.028a7.667,7.667,0,0,0,2.377.385,8.317,8.317,0,0,0,4.047-1.092,7.952,7.952,0,0,0,3.854-5.2L202.4,82.8Z" transform="translate(-148.884 -29.608)" opacity="0.66" fill="url(#linear-gradient-6)"/>
        <g id="Group_3967" data-name="Group 3967" transform="translate(3.318 0.064)">
          <path id="Path_6873" data-name="Path 6873" d="M161.545,65.369h0a7.974,7.974,0,0,1-5.91-2.57l-4.176-4.433a13.85,13.85,0,0,0-7-4.047l-5.974-1.413a7.952,7.952,0,0,1-5.2-3.854,8.053,8.053,0,0,1-.771-6.424l1.8-5.846a13.389,13.389,0,0,0,0-8.094l-1.8-5.846a8.053,8.053,0,0,1,.771-6.424,7.952,7.952,0,0,1,5.2-3.854l5.974-1.413a14.046,14.046,0,0,0,7-4.047l4.176-4.433a8.082,8.082,0,0,1,11.82,0L171.631,7.1a13.85,13.85,0,0,0,7,4.047l5.974,1.413a7.952,7.952,0,0,1,5.2,3.854,8.053,8.053,0,0,1,.771,6.424l-1.8,5.846a13.388,13.388,0,0,0,0,8.094h0l1.8,5.846a8.054,8.054,0,0,1-.771,6.424,7.952,7.952,0,0,1-5.2,3.854l-5.974,1.413a14.046,14.046,0,0,0-7,4.047L167.456,62.8A7.974,7.974,0,0,1,161.545,65.369Zm0-63.535a6.265,6.265,0,0,0-4.625,1.991l-4.176,4.433a15.35,15.35,0,0,1-7.966,4.561L138.8,14.233a6.367,6.367,0,0,0-4.625,8.03l1.8,5.846a15.977,15.977,0,0,1,0,9.186l-1.8,5.846a6.244,6.244,0,0,0,.578,5.011,6.44,6.44,0,0,0,4.047,3.019l5.974,1.413a16.071,16.071,0,0,1,7.966,4.561l4.176,4.433a6.367,6.367,0,0,0,9.251,0l4.176-4.433a15.35,15.35,0,0,1,7.966-4.561l5.974-1.413a6.367,6.367,0,0,0,4.625-8.03l-1.8-5.846a15.977,15.977,0,0,1,0-9.186l1.8-5.846a6.244,6.244,0,0,0-.578-5.011,6.44,6.44,0,0,0-4.047-3.019l-5.974-1.349a16.071,16.071,0,0,1-7.966-4.561L166.171,3.89A6.094,6.094,0,0,0,161.545,1.835Z" transform="translate(-132.164 -0.1)" fill="#00ce7c"/>
        </g>
        <g id="Group_3968" data-name="Group 3968" transform="translate(3.253)">
          <path id="Path_6874" data-name="Path 6874" d="M134.7,52.656l1.478,1.413.771-2.441a15.976,15.976,0,0,0,0-9.186L136.178,40,134.7,41.413l.514,1.606a13.389,13.389,0,0,1,0,8.094Z" transform="translate(-133.007 -14.304)" fill="#00ce7c"/>
          <path id="Path_6875" data-name="Path 6875" d="M150.441,16.1a16.07,16.07,0,0,0,7.966-4.561l1.734-1.863L158.214,9.1l-1.156,1.221a13.85,13.85,0,0,1-7,4.047l-1.606.385L148,16.745Z" transform="translate(-137.763 -3.254)" fill="#00ce7c"/>
          <path id="Path_6876" data-name="Path 6876" d="M190.67,11.505a15.35,15.35,0,0,0,7.966,4.561l2.505.578-.45-1.991-1.606-.385a14.046,14.046,0,0,1-7-4.047L190.927,9,189,9.578Z" transform="translate(-152.424 -3.218)" fill="#00ce7c"/>
          <path id="Path_6877" data-name="Path 6877" d="M198.6,81.342a16.071,16.071,0,0,0-7.966,4.561L188.9,87.767l1.927.578,1.156-1.221a13.849,13.849,0,0,1,7-4.047l1.606-.385.45-1.991Z" transform="translate(-152.388 -28.857)" fill="#00ce7c"/>
          <path id="Path_6878" data-name="Path 6878" d="M218.959,51.014h0a13.389,13.389,0,0,1,0-8.094l.514-1.606L218,39.9l-.771,2.441a15.977,15.977,0,0,0,0,9.186L218,53.969l1.478-1.413Z" transform="translate(-162.275 -14.268)" fill="#00ce7c"/>
          <path id="Path_6879" data-name="Path 6879" d="M217.78,62.7,216.3,64.113l.45,1.478a6.244,6.244,0,0,1-.578,5.011,6.44,6.44,0,0,1-4.047,3.019l-1.478.321-.45,1.991,2.377-.578a7.952,7.952,0,0,0,5.2-3.854,8.054,8.054,0,0,0,.771-6.424Z" transform="translate(-160.005 -22.421)" opacity="0.66" fill="url(#linear-gradient-7)"/>
          <path id="Path_6880" data-name="Path 6880" d="M158.371,86.039a15.35,15.35,0,0,0-7.966-4.561L147.9,80.9l.45,1.991,1.606.385a14.045,14.045,0,0,1,7,4.047l1.156,1.221,1.927-.578Z" transform="translate(-137.727 -28.929)" fill="#00ce7c"/>
          <path id="Path_6881" data-name="Path 6881" d="M140.346,73.842l-1.478-.321a6.367,6.367,0,0,1-4.625-8.03l.45-1.478L133.215,62.6l-.707,2.313a8.053,8.053,0,0,0,.771,6.424,7.952,7.952,0,0,0,5.2,3.854l2.377.578Z" transform="translate(-132.1 -22.385)" opacity="0.66" fill="url(#linear-gradient-8)"/>
          <path id="Path_6882" data-name="Path 6882" d="M179.334,94.1l-1.028,1.092a6.367,6.367,0,0,1-9.251,0L168.027,94.1l-1.927.578,1.67,1.735a7.974,7.974,0,0,0,5.91,2.57h0a7.974,7.974,0,0,0,5.91-2.57l1.67-1.735Z" transform="translate(-144.235 -33.649)" opacity="0.66" fill="url(#linear-gradient-9)"/>
          <path id="Path_6883" data-name="Path 6883" d="M168.063,4.947l1.028-1.092a6.367,6.367,0,0,1,9.251,0l1.028,1.092,1.927-.578-1.606-1.8a8.082,8.082,0,0,0-11.82,0L166.2,4.3Z" transform="translate(-144.271 0)" opacity="0.66" fill="url(#linear-gradient-10)"/>
          <path id="Path_6884" data-name="Path 6884" d="M133.179,31.734l1.478-1.413-.45-1.478a6.244,6.244,0,0,1,.578-5.011,6.44,6.44,0,0,1,4.047-3.019l1.478-.321.45-1.991-2.377.578a7.952,7.952,0,0,0-5.2,3.854,8.053,8.053,0,0,0-.771,6.424Z" transform="translate(-132.064 -6.615)" opacity="0.66" fill="url(#linear-gradient-11)"/>
          <path id="Path_6885" data-name="Path 6885" d="M210.614,20.527l1.478.321a6.367,6.367,0,0,1,4.625,8.03l-.45,1.478,1.478,1.413.707-2.313a8.053,8.053,0,0,0-.771-6.424,7.952,7.952,0,0,0-5.2-3.854L210.1,18.6Z" transform="translate(-159.969 -6.651)" opacity="0.66" fill="url(#linear-gradient-12)"/>
        </g>
      </g>
      <g id="Group_3972" data-name="Group 3972" transform="translate(-54.846 13.517)">
        <path id="Path_6886" data-name="Path 6886" d="M169.5,65.589l16.831-16.831a2.56,2.56,0,0,0,0-3.662l-5.4-5.4L168.278,52.356a5.016,5.016,0,0,0-1.478,3.533V64.5A1.6,1.6,0,0,0,169.5,65.589Z" transform="translate(-166.8 -27.713)" fill="#00ce7c"/>
        <path id="Path_6887" data-name="Path 6887" d="M169.5,65.589l16.831-16.831a2.56,2.56,0,0,0,0-3.662l-5.4-5.4L168.278,52.356a5.016,5.016,0,0,0-1.478,3.533V64.5A1.6,1.6,0,0,0,169.5,65.589Z" transform="translate(-166.8 -27.713)" opacity="0.66" fill="url(#linear-gradient-13)"/>
        <g id="Group_3970" data-name="Group 3970">
          <path id="Path_6888" data-name="Path 6888" d="M166.8,22.621v8.608a4.8,4.8,0,0,0,1.478,3.533l12.656,12.656,5.4-5.4a2.56,2.56,0,0,0,0-3.662L169.5,21.528A1.568,1.568,0,0,0,166.8,22.621Z" transform="translate(-166.8 -21.041)" fill="#00665e"/>
        </g>
        <g id="Group_3971" data-name="Group 3971">
          <path id="Path_6889" data-name="Path 6889" d="M166.8,22.621v8.608a4.8,4.8,0,0,0,1.478,3.533l12.656,12.656,5.4-5.4a2.56,2.56,0,0,0,0-3.662L169.5,21.528A1.568,1.568,0,0,0,166.8,22.621Z" transform="translate(-166.8 -21.041)" fill="url(#linear-gradient-14)"/>
        </g>
      </g>
      <g id="Group_3973" data-name="Group 3973" transform="translate(-2.34 39.714)">
        <path id="Path_6890" data-name="Path 6890" d="M5.637,40.554a6.281,6.281,0,0,0-1.088-3.926,6.179,6.179,0,0,0-3.071-1.944.264.264,0,0,0-.311.156l-.233.816a.221.221,0,0,0,.155.272,4.373,4.373,0,0,1,2.255,1.438,4.711,4.711,0,0,1,.816,2.721H.233C.117,40.165,0,40.243,0,40.4v.7a.251.251,0,0,0,.233.233H5.4a.251.251,0,0,0,.233-.233v-.544Z" transform="translate(0 -31.768)" fill="#00ce7c"/>
        <path id="Path_6891" data-name="Path 6891" d="M27.764,36.763h.428A1.782,1.782,0,0,0,30.057,35.6c.505.777,1.555,1.166,3.071,1.166H49.339a.251.251,0,0,0,.233-.233v-.7a.251.251,0,0,0-.233-.233h-.816a4.3,4.3,0,0,1-2.566-.661,2.054,2.054,0,0,1-.272-3.032,1.789,1.789,0,0,1,1.361-.505,4.439,4.439,0,0,1,1.283.194.264.264,0,0,0,.311-.155l.155-.739a.221.221,0,0,0-.155-.272,6.813,6.813,0,0,0-1.555-.194,3.467,3.467,0,0,0-2.566.933,3.148,3.148,0,0,0-.855,2.216A2.273,2.273,0,0,0,44.946,35.6H40.864V30.621a.251.251,0,0,0-.233-.233h-1.05a.251.251,0,0,0-.233.233V35.6H35.772V33.3c0-2.06-1.011-3.071-2.993-3.071a3.365,3.365,0,0,0-2.566,1.011,3.233,3.233,0,0,0-.855,2.294,2.493,2.493,0,0,1-.428,1.633,1.526,1.526,0,0,1-1.166.428H21.077V27.433a.251.251,0,0,0-.233-.233H19.833a.251.251,0,0,0-.233.233v9.1a.251.251,0,0,0,.233.233h7.93Zm3.576-4.782A1.709,1.709,0,0,1,32.7,31.4c1.088,0,1.633.7,1.633,2.138V35.6H33.128c-1.516,0-2.255-.7-2.255-2.138A1.993,1.993,0,0,1,31.34,31.982Z" transform="translate(-11.981 -27.2)" fill="#00ce7c"/>
        <path id="Path_6892" data-name="Path 6892" d="M73.277,29.833a.816.816,0,1,0,0-1.633.706.706,0,0,0-.544.233.846.846,0,0,0,0,1.166A.652.652,0,0,0,73.277,29.833Z" transform="translate(-44.316 -27.811)" fill="#00ce7c"/>
        <path id="Path_6893" data-name="Path 6893" d="M67.778,29.833a.816.816,0,1,0,0-1.633.706.706,0,0,0-.544.233.846.846,0,0,0,0,1.166A.768.768,0,0,0,67.778,29.833Z" transform="translate(-40.954 -27.811)" fill="#00ce7c"/>
        <path id="Path_6894" data-name="Path 6894" d="M102.544,27.2h-1.011a.251.251,0,0,0-.233.233v9.1a.251.251,0,0,0,.233.233h1.011a.251.251,0,0,0,.233-.233v-9.1A.206.206,0,0,0,102.544,27.2Z" transform="translate(-61.92 -27.2)" fill="#00ce7c"/>
      </g>
      <g id="Group_3974" data-name="Group 3974" transform="translate(-2.182 16.775)">
        <path id="Path_6895" data-name="Path 6895" d="M41.938,75.771h7.447a.471.471,0,0,0,.438-.438V74.018a.471.471,0,0,0-.438-.438H44.128V68.761h5.038a.471.471,0,0,0,.438-.438V67.009a.471.471,0,0,0-.438-.438H44.128V62.19h5.257a.471.471,0,0,0,.438-.438V60.438A.471.471,0,0,0,49.385,60H41.938a.471.471,0,0,0-.438.438V75.333C41.61,75.552,41.719,75.771,41.938,75.771Z" transform="translate(-41.5 -58.795)" fill="#009552"/>
        <path id="Path_6896" data-name="Path 6896" d="M57.343,73.8a1.365,1.365,0,0,1-1.2-.438,3.268,3.268,0,0,1-.329-1.752V66.133h2.628a.471.471,0,0,0,.438-.438V64.6a.471.471,0,0,0-.438-.438H55.809V60.438A.471.471,0,0,0,55.371,60H53.728a.471.471,0,0,0-.438.438v3.724H51.538a.471.471,0,0,0-.438.438v1.1a.471.471,0,0,0,.438.438H53.29v6.243a4.361,4.361,0,0,0,.657,2.738,3.158,3.158,0,0,0,2.519.767,13.419,13.419,0,0,0,2.081-.219c.219,0,.329-.219.329-.438l-.11-1.2c0-.219-.219-.438-.438-.329A3.032,3.032,0,0,1,57.343,73.8Z" transform="translate(-40.586 -58.795)" fill="#009552"/>
        <path id="Path_6897" data-name="Path 6897" d="M61.738,75.409h1.643a.471.471,0,0,0,.438-.438V64.238a.471.471,0,0,0-.438-.438H61.738a.471.471,0,0,0-.438.438V74.971C61.41,75.19,61.519,75.409,61.738,75.409Z" transform="translate(-39.615 -58.434)" fill="#009552"/>
        <path id="Path_6898" data-name="Path 6898" d="M62.433,59.2a1.5,1.5,0,1,0,1.1.438A1.406,1.406,0,0,0,62.433,59.2Z" transform="translate(-39.653 -58.871)" fill="#009552"/>
        <path id="Path_6899" data-name="Path 6899" d="M79.842,63.7a3.922,3.922,0,0,0-3.833,2.519A2.863,2.863,0,0,0,72.833,63.7,3.828,3.828,0,0,0,69,66.219h0a10.021,10.021,0,0,0,.11-1.862.471.471,0,0,0-.438-.438H67.138a.471.471,0,0,0-.438.438V74.98a.471.471,0,0,0,.438.438h1.643a.471.471,0,0,0,.438-.438V69.943a4.984,4.984,0,0,1,.876-2.957,2.48,2.48,0,0,1,2.081-1.2q1.643,0,1.643,2.3v6.9a.471.471,0,0,0,.438.438H75.9a.471.471,0,0,0,.438-.438V69.943a5.6,5.6,0,0,1,.876-3.067,2.322,2.322,0,0,1,1.971-1.1q1.643,0,1.643,2.3v6.9a.471.471,0,0,0,.438.438h1.643a.471.471,0,0,0,.438-.438V67.424C83.237,64.9,82.142,63.7,79.842,63.7Z" transform="translate(-39.101 -58.443)" fill="#009552"/>
        <path id="Path_6900" data-name="Path 6900" d="M93.99,67.652A4.016,4.016,0,0,0,93,64.7a4.374,4.374,0,0,0-3.4-1.1,12.4,12.4,0,0,0-3.943.657c-.219.11-.329.219-.219.438l.219,1.1a.6.6,0,0,0,.548.329,7.731,7.731,0,0,1,3.067-.657,2.379,2.379,0,0,1,1.752.548,2.572,2.572,0,0,1,.548,1.752v.657a10.351,10.351,0,0,0-4.928.986,3.211,3.211,0,0,0,1.424,6.133,3.742,3.742,0,0,0,3.833-2.409h0A7.794,7.794,0,0,0,91.8,74.88a.471.471,0,0,0,.438.438h1.533a.471.471,0,0,0,.438-.438V67.652ZM91.581,70.39a2.983,2.983,0,0,1-.767,2.19,2.488,2.488,0,0,1-1.971.986,1.27,1.27,0,0,1-1.1-.438,1.406,1.406,0,0,1-.438-1.1c0-1.314,1.424-1.971,4.381-1.971v.329Z" transform="translate(-37.369 -58.453)" fill="#009552"/>
        <path id="Path_6901" data-name="Path 6901" d="M103.576,59.338v4.928a12.925,12.925,0,0,0-1.752-.11,5.543,5.543,0,0,0-4.381,1.752A6.668,6.668,0,0,0,95.8,70.618a5.844,5.844,0,0,0,1.1,3.943,4.153,4.153,0,0,0,6.9-.986h0a8.851,8.851,0,0,0-.11,1.752.471.471,0,0,0,.438.438h1.533a.471.471,0,0,0,.438-.438V59.338a.471.471,0,0,0-.438-.438h-1.643C103.795,59.01,103.576,59.119,103.576,59.338Zm0,10.514a5.057,5.057,0,0,1-.767,2.847,2.369,2.369,0,0,1-2.081,1.314q-2.3,0-2.3-3.614,0-4.271,3.286-4.271a12.2,12.2,0,0,1,1.862.219Z" transform="translate(-36.331 -58.9)" fill="#009552"/>
      </g>
    </g>
  </g>
</svg>
